<?xml version="1.0" encoding="UTF-8" standalone="no"?>
<!DOCTYPE svg PUBLIC "-//W3C//DTD SVG 1.1//EN"
 "http://www.w3.org/Graphics/SVG/1.1/DTD/svg11.dtd">
<!-- Generated by graphviz version 2.38.0 (20140413.2041)
 -->
<!-- Title: dependency&#45;cruiser output Pages: 1 -->
<svg width="376pt" height="392pt"
 viewBox="0.00 0.00 376.00 392.00" xmlns="http://www.w3.org/2000/svg" xmlns:xlink="http://www.w3.org/1999/xlink">
<g id="graph0" class="graph" transform="scale(1 1) rotate(0) translate(4 388)">
<title>dependency&#45;cruiser output</title>
<polygon fill="white" stroke="none" points="-4,4 -4,-388 372,-388 372,4 -4,4"/>
<g id="clust1" class="cluster"><title>cluster_node_modules</title>
<path fill="#ffffff" stroke="black" stroke-width="2" d="M270,-8C270,-8 348,-8 348,-8 354,-8 360,-14 360,-20 360,-20 360,-364 360,-364 360,-370 354,-376 348,-376 348,-376 270,-376 270,-376 264,-376 258,-370 258,-364 258,-364 258,-20 258,-20 258,-14 264,-8 270,-8"/>
<text text-anchor="middle" x="309" y="-364.8" font-family="Helvetica,sans-Serif" font-weight="bold" font-size="9.00">node_modules</text>
</g>
<g id="clust4" class="cluster"><title>cluster_node_modules/jsdom</title>
<path fill="#ffffff" stroke="black" stroke-width="2" d="M278,-264C278,-264 340,-264 340,-264 346,-264 352,-270 352,-276 352,-276 352,-338 352,-338 352,-344 346,-350 340,-350 340,-350 278,-350 278,-350 272,-350 266,-344 266,-338 266,-338 266,-276 266,-276 266,-270 272,-264 278,-264"/>
<text text-anchor="middle" x="309" y="-338.8" font-family="Helvetica,sans-Serif" font-weight="bold" font-size="9.00">jsdom</text>
</g>
<g id="clust5" class="cluster"><title>cluster_node_modules/jsdom/lib</title>
<path fill="#ffffff" stroke="black" stroke-width="2" d="M286,-272C286,-272 332,-272 332,-272 338,-272 344,-278 344,-284 344,-284 344,-312 344,-312 344,-318 338,-324 332,-324 332,-324 286,-324 286,-324 280,-324 274,-318 274,-312 274,-312 274,-284 274,-284 274,-278 280,-272 286,-272"/>
<text text-anchor="middle" x="309" y="-312.8" font-family="Helvetica,sans-Serif" font-weight="bold" font-size="9.00">lib</text>
</g>
<g id="clust2" class="cluster"><title>cluster_node_modules/fs&#45;extra</title>
<path fill="#ffffff" stroke="black" stroke-width="2" d="M278,-76C278,-76 340,-76 340,-76 346,-76 352,-82 352,-88 352,-88 352,-150 352,-150 352,-156 346,-162 340,-162 340,-162 278,-162 278,-162 272,-162 266,-156 266,-150 266,-150 266,-88 266,-88 266,-82 272,-76 278,-76"/>
<text text-anchor="middle" x="309" y="-150.8" font-family="Helvetica,sans-Serif" font-weight="bold" font-size="9.00">fs&#45;extra</text>
</g>
<g id="clust3" class="cluster"><title>cluster_node_modules/fs&#45;extra/lib</title>
<path fill="#ffffff" stroke="black" stroke-width="2" d="M286,-84C286,-84 332,-84 332,-84 338,-84 344,-90 344,-96 344,-96 344,-124 344,-124 344,-130 338,-136 332,-136 332,-136 286,-136 286,-136 280,-136 274,-130 274,-124 274,-124 274,-96 274,-96 274,-90 280,-84 286,-84"/>
<text text-anchor="middle" x="309" y="-124.8" font-family="Helvetica,sans-Serif" font-weight="bold" font-size="9.00">lib</text>
</g>
<g id="clust8" class="cluster"><title>cluster_node_modules/validator</title>
<path fill="#ffffff" stroke="black" stroke-width="2" d="M286,-16C286,-16 332,-16 332,-16 338,-16 344,-22 344,-28 344,-28 344,-56 344,-56 344,-62 338,-68 332,-68 332,-68 286,-68 286,-68 280,-68 274,-62 274,-56 274,-56 274,-28 274,-28 274,-22 280,-16 286,-16"/>
<text text-anchor="middle" x="309" y="-56.8" font-family="Helvetica,sans-Serif" font-weight="bold" font-size="9.00">validator</text>
</g>
<g id="clust6" class="cluster"><title>cluster_node_modules/node&#45;fetch</title>
<path fill="#ffffff" stroke="black" stroke-width="2" d="M278,-170C278,-170 340,-170 340,-170 346,-170 352,-176 352,-182 352,-182 352,-244 352,-244 352,-250 346,-256 340,-256 340,-256 278,-256 278,-256 272,-256 266,-250 266,-244 266,-244 266,-182 266,-182 266,-176 272,-170 278,-170"/>
<text text-anchor="middle" x="309" y="-244.8" font-family="Helvetica,sans-Serif" font-weight="bold" font-size="9.00">node&#45;fetch</text>
</g>
<g id="clust7" class="cluster"><title>cluster_node_modules/node&#45;fetch/lib</title>
<path fill="#ffffff" stroke="black" stroke-width="2" d="M286,-178C286,-178 332,-178 332,-178 338,-178 344,-184 344,-190 344,-190 344,-218 344,-218 344,-224 338,-230 332,-230 332,-230 286,-230 286,-230 280,-230 274,-224 274,-218 274,-218 274,-190 274,-190 274,-184 280,-178 286,-178"/>
<text text-anchor="middle" x="309" y="-218.8" font-family="Helvetica,sans-Serif" font-weight="bold" font-size="9.00">lib</text>
</g>
<g id="clust9" class="cluster"><title>cluster_src</title>
<path fill="#ffffff" stroke="black" stroke-width="2" d="M20,-161C20,-161 238,-161 238,-161 244,-161 250,-167 250,-173 250,-173 250,-201 250,-201 250,-207 244,-213 238,-213 238,-213 20,-213 20,-213 14,-213 8,-207 8,-201 8,-201 8,-173 8,-173 8,-167 14,-161 20,-161"/>
<text text-anchor="middle" x="129" y="-201.8" font-family="Helvetica,sans-Serif" font-weight="bold" font-size="9.00">src</text>
</g>
<!-- node_modules/fs&#45;extra/lib/index.js -->
<g id="node1" class="node"><title>node_modules/fs&#45;extra/lib/index.js</title>
<g id="a_node1"><a xlink:href="node_modules/fs-extra/lib/index.js" xlink:title="index.js">
<polygon fill="#c40b0a" fill-opacity="0.101961" stroke="black" points="336,-110 334.5,-112 324,-112 322.5,-110 282,-110 282,-92 336,-92 336,-110"/>
<text text-anchor="middle" x="309" y="-98.8" font-family="Helvetica,sans-Serif" font-size="9.00" fill="#c40b0a">index.js</text>
</a>
</g>
</g>
<!-- node_modules/jsdom/lib/api.js -->
<g id="node2" class="node"><title>node_modules/jsdom/lib/api.js</title>
<g id="a_node2"><a xlink:href="node_modules/jsdom/lib/api.js" xlink:title="api.js">
<polygon fill="#c40b0a" fill-opacity="0.101961" stroke="black" points="336,-298 334.5,-300 324,-300 322.5,-298 282,-298 282,-280 336,-280 336,-298"/>
<text text-anchor="middle" x="309" y="-286.8" font-family="Helvetica,sans-Serif" font-size="9.00" fill="#c40b0a">api.js</text>
</a>
</g>
</g>
<!-- node_modules/node&#45;fetch/lib/index.js -->
<g id="node3" class="node"><title>node_modules/node&#45;fetch/lib/index.js</title>
<g id="a_node3"><a xlink:href="node_modules/node-fetch/lib/index.js" xlink:title="index.js">
<polygon fill="#c40b0a" fill-opacity="0.101961" stroke="black" points="336,-204 334.5,-206 324,-206 322.5,-204 282,-204 282,-186 336,-186 336,-204"/>
<text text-anchor="middle" x="309" y="-192.8" font-family="Helvetica,sans-Serif" font-size="9.00" fill="#c40b0a">index.js</text>
</a>
</g>
</g>
<!-- node_modules/validator/index.js -->
<g id="node4" class="node"><title>node_modules/validator/index.js</title>
<g id="a_node4"><a xlink:href="node_modules/validator/index.js" xlink:title="index.js">
<polygon fill="#c40b0a" fill-opacity="0.101961" stroke="black" points="336,-42 334.5,-44 324,-44 322.5,-42 282,-42 282,-24 336,-24 336,-42"/>
<text text-anchor="middle" x="309" y="-30.8" font-family="Helvetica,sans-Serif" font-size="9.00" fill="#c40b0a">index.js</text>
</a>
</g>
</g>
<!-- path -->
<g id="node5" class="node"><title>path</title>
<path fill="#ffffcc" stroke="grey" d="M139.5,-153C139.5,-153 97.5,-153 97.5,-153 94.5,-153 91.5,-150 91.5,-147 91.5,-147 91.5,-141 91.5,-141 91.5,-138 94.5,-135 97.5,-135 97.5,-135 139.5,-135 139.5,-135 142.5,-135 145.5,-138 145.5,-141 145.5,-141 145.5,-147 145.5,-147 145.5,-150 142.5,-153 139.5,-153"/>
<text text-anchor="middle" x="118.5" y="-141.8" font-family="Helvetica,sans-Serif" font-size="9.00" fill="grey">path</text>
</g>
<!-- src/app.js -->
<g id="node6" class="node"><title>src/app.js</title>
<g id="a_node6"><a xlink:href="src/app.js" xlink:title="app.js">
<path fill="#ffffcc" stroke="black" d="M64,-187C64,-187 22,-187 22,-187 19,-187 16,-184 16,-181 16,-181 16,-175 16,-175 16,-172 19,-169 22,-169 22,-169 64,-169 64,-169 67,-169 70,-172 70,-175 70,-175 70,-181 70,-181 70,-184 67,-187 64,-187"/>
<text text-anchor="middle" x="43" y="-175.8" font-family="Helvetica,sans-Serif" font-size="9.00">app.js</text>
</a>
</g>
</g>
<!-- src/app.js&#45;&gt;path -->
<g id="edge2" class="edge"><title>src/app.js&#45;&gt;path</title>
<path fill="none" stroke="#000000" stroke-dasharray="5,2" stroke-opacity="0.200000" d="M60.9255,-168.908C67.7206,-165.366 75.6674,-161.36 83,-158 84.8217,-157.165 86.7081,-156.327 88.6168,-155.499"/>
<polygon fill="#000000" fill-opacity="0.200000" stroke="#000000" stroke-opacity="0.200000" points="89.6653,-157.336 94.3675,-153.058 88.024,-153.47 89.6653,-157.336"/>
</g>
<!-- src/application.js -->
<g id="node7" class="node"><title>src/application.js</title>
<g id="a_node7"><a xlink:href="src/application.js" xlink:title="application.js">
<path fill="#ffffcc" stroke="black" d="M148,-187C148,-187 89,-187 89,-187 86,-187 83,-184 83,-181 83,-181 83,-175 83,-175 83,-172 86,-169 89,-169 89,-169 148,-169 148,-169 151,-169 154,-172 154,-175 154,-175 154,-181 154,-181 154,-184 151,-187 148,-187"/>
<text text-anchor="middle" x="118.5" y="-175.8" font-family="Helvetica,sans-Serif" font-size="9.00">application.js</text>
</a>
</g>
</g>
<!-- src/app.js&#45;&gt;src/application.js -->
<g id="edge1" class="edge"><title>src/app.js&#45;&gt;src/application.js</title>
<path fill="none" stroke="#000000" stroke-width="2" stroke-opacity="0.200000" d="M70.1203,-178C72.3123,-178 74.5596,-178 76.827,-178"/>
<polygon fill="#000000" fill-opacity="0.200000" stroke="#000000" stroke-width="2" stroke-opacity="0.200000" points="76.8519,-180.1 82.8518,-178 76.8518,-175.9 76.8519,-180.1"/>
</g>
<!-- src/application.js&#45;&gt;node_modules/fs&#45;extra/lib/index.js -->
<g id="edge4" class="edge"><title>src/application.js&#45;&gt;node_modules/fs&#45;extra/lib/index.js</title>
<path fill="none" stroke="#000000" stroke-dasharray="5,2" stroke-opacity="0.200000" d="M141.864,-168.865C176.392,-154.76 242.613,-127.71 280.183,-112.363"/>
<polygon fill="#000000" fill-opacity="0.200000" stroke="#000000" stroke-opacity="0.200000" points="281.197,-114.217 285.957,-110.004 279.609,-110.329 281.197,-114.217"/>
</g>
<!-- src/application.js&#45;&gt;node_modules/validator/index.js -->
<g id="edge5" class="edge"><title>src/application.js&#45;&gt;node_modules/validator/index.js</title>
<path fill="none" stroke="#000000" stroke-dasharray="5,2" stroke-opacity="0.200000" d="M141.703,-168.911C146.237,-166.252 150.642,-162.966 154,-159 165.264,-145.699 156.138,-135.631 167,-122 196.805,-84.5961 246.867,-58.4019 278.626,-44.5276"/>
<polygon fill="#000000" fill-opacity="0.200000" stroke="#000000" stroke-opacity="0.200000" points="279.646,-46.3748 284.333,-42.0804 277.991,-42.5146 279.646,-46.3748"/>
</g>
<!-- src/link&#45;scraper.js -->
<g id="node8" class="node"><title>src/link&#45;scraper.js</title>
<g id="a_node8"><a xlink:href="src/link-scraper.js" xlink:title="link&#45;scraper.js">
<path fill="#ffffcc" stroke="black" d="M236,-187C236,-187 173,-187 173,-187 170,-187 167,-184 167,-181 167,-181 167,-175 167,-175 167,-172 170,-169 173,-169 173,-169 236,-169 236,-169 239,-169 242,-172 242,-175 242,-175 242,-181 242,-181 242,-184 239,-187 236,-187"/>
<text text-anchor="middle" x="204.5" y="-175.8" font-family="Helvetica,sans-Serif" font-size="9.00">link&#45;scraper.js</text>
</a>
</g>
</g>
<!-- src/application.js&#45;&gt;src/link&#45;scraper.js -->
<g id="edge3" class="edge"><title>src/application.js&#45;&gt;src/link&#45;scraper.js</title>
<path fill="none" stroke="#000000" stroke-width="2" stroke-opacity="0.200000" d="M154.151,-178C156.23,-178 158.334,-178 160.441,-178"/>
<polygon fill="#000000" fill-opacity="0.200000" stroke="#000000" stroke-width="2" stroke-opacity="0.200000" points="160.752,-180.1 166.752,-178 160.752,-175.9 160.752,-180.1"/>
</g>
<!-- src/link&#45;scraper.js&#45;&gt;node_modules/jsdom/lib/api.js -->
<g id="edge6" class="edge"><title>src/link&#45;scraper.js&#45;&gt;node_modules/jsdom/lib/api.js</title>
<path fill="none" stroke="#000000" stroke-dasharray="5,2" stroke-opacity="0.200000" d="M213.888,-187.084C231.832,-206.516 274.037,-252.221 295.294,-275.241"/>
<polygon fill="#000000" fill-opacity="0.200000" stroke="#000000" stroke-opacity="0.200000" points="293.883,-276.807 299.496,-279.791 296.968,-273.958 293.883,-276.807"/>
</g>
<!-- src/link&#45;scraper.js&#45;&gt;node_modules/node&#45;fetch/lib/index.js -->
<g id="edge7" class="edge"><title>src/link&#45;scraper.js&#45;&gt;node_modules/node&#45;fetch/lib/index.js</title>
<path fill="none" stroke="#000000" stroke-dasharray="5,2" stroke-opacity="0.200000" d="M242.215,-184.089C253.164,-185.905 265.077,-187.881 275.72,-189.646"/>
<polygon fill="#000000" fill-opacity="0.200000" stroke="#000000" stroke-opacity="0.200000" points="275.559,-191.748 281.822,-190.658 276.246,-187.605 275.559,-191.748"/>
</g>
</g>
</svg>
